<svg width="190.000000" height="46.000000" viewBox="0 0 190 46" fill="none" xmlns="http://www.w3.org/2000/svg" xmlns:xlink="http://www.w3.org/1999/xlink">
	<desc>
			Created with Pixso.
	</desc>
	<defs/>
	<path id="Товаров: 3 6 540 ₽" d="M127.093 13.0088L127.972 13.0161Q128.939 13.0161 129.602 12.5071Q130.265 11.998 130.36 11.1265Q130.455 10.2769 130.045 9.78979Q129.635 9.30273 128.851 9.28809Q128.016 9.27344 127.434 9.77515Q126.852 10.2769 126.72 11.1265L125.409 11.1338Q125.533 9.81543 126.533 8.99146Q127.533 8.16748 128.917 8.18213Q130.257 8.21143 131.023 9.02075Q131.788 9.83008 131.686 11.1558Q131.62 11.9102 131.107 12.5327Q130.594 13.1553 129.686 13.5654Q130.411 13.8584 130.77 14.4919Q131.129 15.1255 131.07 15.9751Q130.953 17.418 129.924 18.2969Q128.895 19.1758 127.423 19.1465Q126.053 19.1172 125.24 18.2969Q124.427 17.4766 124.486 16.1802L125.812 16.1875Q125.768 17.0078 126.207 17.5095Q126.646 18.0112 127.481 18.0405Q128.419 18.0698 129.042 17.5059Q129.664 16.9419 129.752 15.9971Q129.833 15.1255 129.356 14.6384Q128.88 14.1514 127.936 14.1221L126.917 14.1147L127.093 13.0088ZM65.4673 28.2261L65.4673 29.9692L65.2622 29.9692Q63.8267 29.9912 62.9514 30.7163Q62.0762 31.4414 61.9004 32.7305Q62.75 31.8662 64.0464 31.8662Q65.438 31.8662 66.2583 32.8623Q67.0786 33.8584 67.0786 35.4844Q67.0786 36.5244 66.6282 37.3667Q66.1777 38.209 65.3538 38.6777Q64.5298 39.1465 63.4897 39.1465Q61.8052 39.1465 60.7688 37.9746Q59.7324 36.8027 59.7324 34.8472L59.7324 34.0854Q59.7324 32.3496 60.3879 31.0203Q61.0435 29.6909 62.2703 28.9622Q63.4971 28.2334 65.1157 28.2261L65.4673 28.2261ZM63.4019 33.5654Q62.8892 33.5654 62.4717 33.8328Q62.0542 34.1001 61.8564 34.5396L61.8564 35.1841Q61.8564 36.2461 62.2739 36.843Q62.6914 37.4399 63.4458 37.4399Q64.127 37.4399 64.5481 36.9016Q64.9692 36.3633 64.9692 35.5063Q64.9692 34.6348 64.5444 34.1001Q64.1196 33.5654 63.4019 33.5654ZM72.3813 33.7559L72.9966 28.3359L78.9731 28.3359L78.9731 30.1011L74.7324 30.1011L74.4688 32.3936Q75.2231 31.9907 76.0728 31.9907Q77.5962 31.9907 78.4604 32.9355Q79.3247 33.8804 79.3247 35.5796Q79.3247 36.6123 78.8889 37.429Q78.4531 38.2456 77.6401 38.696Q76.8271 39.1465 75.7212 39.1465Q74.7544 39.1465 73.9268 38.7546Q73.0991 38.3628 72.6194 37.6523Q72.1396 36.9419 72.1104 36.0337L74.2051 36.0337Q74.271 36.7002 74.6702 37.0701Q75.0693 37.4399 75.7139 37.4399Q76.4316 37.4399 76.8198 36.9236Q77.208 36.4072 77.208 35.4624Q77.208 34.5542 76.7612 34.0708Q76.3145 33.5874 75.4941 33.5874Q74.7397 33.5874 74.271 33.9829L74.0659 34.1733L72.3813 33.7559ZM86.9346 34.9863L88.1431 34.9863L88.1431 36.6929L86.9346 36.6929L86.9346 39L84.8179 39L84.8179 36.6929L80.4453 36.6929L80.3501 35.3599L84.7959 28.3359L86.9346 28.3359L86.9346 34.9863ZM82.4595 34.9863L84.8179 34.9863L84.8179 31.2217L84.6787 31.4634L82.4595 34.9863ZM96.4561 34.5908Q96.4561 36.8027 95.5405 37.9746Q94.625 39.1465 92.8599 39.1465Q91.1167 39.1465 90.1938 37.9966Q89.271 36.8467 89.249 34.7007L89.249 32.7378Q89.249 30.5039 90.1755 29.3467Q91.1021 28.1895 92.8452 28.1895Q94.5884 28.1895 95.5112 29.3357Q96.4341 30.4819 96.4561 32.6279L96.4561 34.5908ZM94.3394 32.4375Q94.3394 31.1118 93.9768 30.5076Q93.6143 29.9033 92.8452 29.9033Q92.0981 29.9033 91.7429 30.4783Q91.3877 31.0532 91.3657 32.2764L91.3657 34.8691Q91.3657 36.1729 91.7209 36.8064Q92.0762 37.4399 92.8599 37.4399Q93.6362 37.4399 93.9805 36.832Q94.3247 36.2241 94.3394 34.9717L94.3394 32.4375ZM107.281 37.5791L104.952 37.5791L104.952 39L102.755 39L102.755 37.5791L101.268 37.5791L101.268 35.7993L102.755 35.7993L102.755 35.2427L101.268 35.2427L101.268 33.4629L102.755 33.4629L102.755 28.3359L106.9 28.3359Q108.102 28.3359 109.01 28.7681Q109.918 29.2002 110.42 30.0022Q110.921 30.8042 110.921 31.8296Q110.921 33.4116 109.848 34.3271Q108.775 35.2427 106.864 35.2427L104.952 35.2427L104.952 35.7993L107.281 35.7993L107.281 37.5791ZM104.952 33.4629L106.849 33.4629Q108.695 33.4629 108.695 31.8442Q108.695 31.0752 108.226 30.6028Q107.757 30.1304 106.93 30.123L104.952 30.123L104.952 33.4629Z" fill="#0E2149" fill-opacity="1.000000" fill-rule="evenodd"/>
	<path id="Товаров: 3 6 540 ₽" d="M68.2358 9.49316L64.918 9.49316L63.27 19L61.9004 19L63.5483 9.49316L60.2305 9.49316L60.4355 8.33594L68.4409 8.33594L68.2358 9.49316ZM71.6562 10.9287Q72.6523 10.9434 73.3628 11.4707Q74.0732 11.998 74.4138 12.9246Q74.7544 13.8511 74.6445 14.9497L74.6299 15.1108Q74.4907 16.2681 73.9414 17.2019Q73.3921 18.1357 72.5205 18.6558Q71.6489 19.1758 70.6089 19.1465Q69.6201 19.1318 68.906 18.6045Q68.1919 18.0771 67.8623 17.1689Q67.5327 16.2607 67.6279 15.1694Q67.7378 13.939 68.2944 12.9575Q68.8511 11.9761 69.7263 11.4377Q70.6016 10.8994 71.6562 10.9287ZM68.9609 15.1768Q68.9097 15.6382 68.9609 16.1362Q69.0342 17.0005 69.4773 17.5132Q69.9204 18.0259 70.6602 18.0479Q71.3193 18.0698 71.876 17.7219Q72.4326 17.374 72.8135 16.6709Q73.1943 15.9678 73.3042 15.1108Q73.3628 14.437 73.3262 13.9756Q73.2383 13.0894 72.7915 12.5767Q72.3447 12.064 71.605 12.0347Q70.5796 12.0127 69.8618 12.8403Q69.144 13.668 68.9756 15.0083L68.9609 15.1768ZM75.7505 19L77.1274 11.0752L79.9253 11.0825Q81.4048 11.0898 82.1995 11.6282Q82.9941 12.1665 82.9209 13.1919Q82.8477 14.3271 81.3682 14.957Q81.9541 15.1328 82.2837 15.6052Q82.6133 16.0776 82.584 16.6929Q82.54 17.7622 81.6978 18.3738Q80.8555 18.9854 79.4419 19L75.7505 19ZM77.6768 15.521L77.2593 17.9087L79.354 17.916Q80.1743 17.916 80.6833 17.5828Q81.1924 17.2495 81.2729 16.6562Q81.3462 16.1289 80.991 15.8396Q80.6357 15.5503 79.9253 15.5283L77.6768 15.521ZM77.8599 14.437L79.4858 14.4443Q80.4453 14.4443 80.98 14.144Q81.5146 13.8438 81.5952 13.2725Q81.749 12.2324 80.0205 12.1812L78.2554 12.1738L77.8599 14.437ZM88.8608 19Q88.8096 18.7876 88.8096 18.5825L88.8315 18.165Q87.7402 19.1758 86.5171 19.1465Q85.4697 19.1318 84.8142 18.4836Q84.1587 17.8354 84.2173 16.8613Q84.2905 15.6016 85.3196 14.8948Q86.3486 14.188 88.0259 14.188L89.4102 14.1953L89.498 13.5654Q89.5713 12.855 89.2234 12.4412Q88.8755 12.0273 88.1797 12.0127Q87.4985 11.998 86.9749 12.3459Q86.4512 12.6938 86.334 13.2651L85.001 13.2725Q85.0669 12.5767 85.543 12.0383Q86.019 11.5 86.7661 11.2034Q87.5132 10.9067 88.3115 10.9214Q89.5493 10.9507 90.2378 11.6721Q90.9263 12.3936 90.8164 13.5874L90.1719 17.5132L90.1353 18.0771Q90.1206 18.48 90.2231 18.8755L90.2085 19L88.8608 19ZM86.7808 17.9746Q87.418 17.9893 87.9856 17.6707Q88.5532 17.3521 88.9634 16.7881L89.249 15.1548L88.2456 15.1475Q86.9932 15.1475 86.3267 15.543Q85.6602 15.9385 85.5723 16.6636Q85.5063 17.2202 85.8323 17.5901Q86.1582 17.96 86.7808 17.9746ZM99.1807 15.0742Q99.0342 16.2827 98.5288 17.2495Q98.0234 18.2163 97.2764 18.696Q96.5293 19.1758 95.6211 19.1538Q94.2441 19.1245 93.5117 18.2236L92.8013 22.0469L91.4756 22.0469L93.3799 11.0752L94.5811 11.0679L94.4346 11.9541Q95.416 10.8994 96.7856 10.9287Q97.9282 10.958 98.5654 11.771Q99.2026 12.584 99.2393 14.0122Q99.2466 14.481 99.2026 14.9204L99.1807 15.0742ZM97.877 14.9204L97.9136 14.3052Q97.9136 13.2358 97.5071 12.6682Q97.1006 12.1006 96.3315 12.0713Q95.1816 12.042 94.3467 13.1626L93.6802 16.9639Q94.127 18.0186 95.2842 18.0479Q96.2729 18.0698 96.9651 17.2751Q97.6572 16.4805 97.877 14.9204ZM104.645 10.9287Q105.641 10.9434 106.351 11.4707Q107.062 11.998 107.402 12.9246Q107.743 13.8511 107.633 14.9497L107.618 15.1108Q107.479 16.2681 106.93 17.2019Q106.38 18.1357 105.509 18.6558Q104.637 19.1758 103.597 19.1465Q102.608 19.1318 101.894 18.6045Q101.18 18.0771 100.851 17.1689Q100.521 16.2607 100.616 15.1694Q100.726 13.939 101.283 12.9575Q101.839 11.9761 102.715 11.4377Q103.59 10.8994 104.645 10.9287ZM101.949 15.1768Q101.898 15.6382 101.949 16.1362Q102.022 17.0005 102.466 17.5132Q102.909 18.0259 103.648 18.0479Q104.308 18.0698 104.864 17.7219Q105.421 17.374 105.802 16.6709Q106.183 15.9678 106.292 15.1108Q106.351 14.437 106.314 13.9756Q106.227 13.0894 105.78 12.5767Q105.333 12.064 104.593 12.0347Q103.568 12.0127 102.85 12.8403Q102.132 13.668 101.964 15.0083L101.949 15.1768ZM108.739 19L110.116 11.0752L112.914 11.0825Q114.393 11.0898 115.188 11.6282Q115.982 12.1665 115.909 13.1919Q115.836 14.3271 114.356 14.957Q114.942 15.1328 115.272 15.6052Q115.602 16.0776 115.572 16.6929Q115.528 17.7622 114.686 18.3738Q113.844 18.9854 112.43 19L108.739 19ZM110.665 15.521L110.248 17.9087L112.342 17.916Q113.163 17.916 113.672 17.5828Q114.181 17.2495 114.261 16.6562Q114.334 16.1289 113.979 15.8396Q113.624 15.5503 112.914 15.5283L110.665 15.521ZM110.848 14.437L112.474 14.4443Q113.434 14.4443 113.968 14.144Q114.503 13.8438 114.583 13.2725Q114.737 12.2324 113.009 12.1812L111.244 12.1738L110.848 14.437ZM117.901 17.4619Q118.26 17.4546 118.495 17.6816Q118.729 17.9087 118.722 18.2676Q118.714 18.6265 118.48 18.8499Q118.246 19.0732 117.894 19.0879Q117.542 19.1025 117.315 18.8865Q117.088 18.6704 117.088 18.3115Q117.088 17.9526 117.315 17.7146Q117.542 17.4766 117.901 17.4619ZM119.022 10.9946Q119.381 10.9873 119.615 11.2144Q119.85 11.4414 119.842 11.8003Q119.835 12.1592 119.601 12.3826Q119.366 12.606 119.015 12.6206Q118.663 12.6353 118.436 12.4192Q118.209 12.2031 118.209 11.8442Q118.209 11.4854 118.436 11.2473Q118.663 11.0093 119.022 10.9946Z" fill="#717171" fill-opacity="1.000000" fill-rule="evenodd"/>
	<circle id="Ellipse 4" cx="23.000000" cy="23.000000" r="23.000000" fill="#EFF2F4" fill-opacity="1.000000"/>
	<path id="Vector" d="M23.5 12L16.1843 19.5093L12 19.5093L12 24.5684L13.0267 24.5684L15.3112 32.3938L15.4911 33L31.5089 33L31.6888 32.3938L33.9733 24.5684L35 24.5684L35 19.5093L30.8157 19.5093L23.5 12ZM23.5 14.3979L28.4803 19.5093L18.5205 19.5093L23.5 14.3979ZM13.6428 21.1956L33.3572 21.1956L33.3572 22.8818L32.7411 22.8818L32.5612 23.4883L30.2767 31.3137L16.7233 31.3137L14.4388 23.4883L14.2589 22.8818L13.6428 22.8818L13.6428 21.1956ZM19.3928 23.7251L19.3928 29.6274L21.0358 29.6274L21.0358 23.7251L19.3928 23.7251ZM22.6786 23.7251L22.6786 29.6274L24.3214 29.6274L24.3214 23.7251L22.6786 23.7251ZM25.9642 23.7251L25.9642 29.6274L27.6072 29.6274L27.6072 23.7251L25.9642 23.7251Z" fill="#0E2149" fill-opacity="1.000000" fill-rule="nonzero"/>
</svg>
