<svg width="36.000000" height="33.000000" viewBox="0 0 36 33" fill="none" xmlns="http://www.w3.org/2000/svg" xmlns:xlink="http://www.w3.org/1999/xlink">
	<desc>
			Created with Pixso.
	</desc>
	<defs/>
	<circle id="Ellipse 4" cx="26.500000" cy="9.500000" r="9.500000" fill="#D79F43" fill-opacity="1.000000"/>
	<path id="3" d="M24.8438 10.4082L25.6641 10.415Q26.5664 10.415 27.1851 9.93994Q27.8037 9.46484 27.8926 8.65137Q27.9814 7.8584 27.5986 7.40381Q27.2158 6.94922 26.4844 6.93555Q25.7051 6.92188 25.1616 7.39014Q24.6182 7.8584 24.4951 8.65137L23.2715 8.6582Q23.3877 7.42773 24.3208 6.65869Q25.2539 5.88965 26.5459 5.90332Q27.7969 5.93066 28.5112 6.68604Q29.2256 7.44141 29.1299 8.67871Q29.0684 9.38281 28.5898 9.96387Q28.1113 10.5449 27.2637 10.9277Q27.9404 11.2012 28.2754 11.7925Q28.6104 12.3838 28.5557 13.1768Q28.4463 14.5234 27.4858 15.3438Q26.5254 16.1641 25.1514 16.1367Q23.873 16.1094 23.1143 15.3438Q22.3555 14.5781 22.4102 13.3682L23.6475 13.375Q23.6064 14.1406 24.0166 14.6089Q24.4268 15.0771 25.2061 15.1045Q26.0811 15.1318 26.6621 14.6055Q27.2432 14.0791 27.3252 13.1973Q27.4004 12.3838 26.9561 11.9292Q26.5117 11.4746 25.6299 11.4473L24.6797 11.4404L24.8438 10.4082Z" fill="#FFFFFF" fill-opacity="1.000000" fill-rule="evenodd"/>
	<path id="Vector" d="M11.5 14.5515L13.6562 18.9358L14.0156 19.7214L14.7969 19.8394L19.6094 20.5386L16.1875 23.9172L15.6016 24.4907L15.7422 25.2764L16.5625 30.0928L12.2578 27.822L11.5 27.5L10.7734 27.885L6.46875 30.1243L7.25 25.3079L7.39062 24.5222L6.8125 23.9172L3.35938 20.4993L8.17188 19.8L8.95312 19.6821L9.3125 18.8965L11.5 14.5515ZM11.5 11L7.94531 18.2444L0 19.3992L5.75 25.0408L4.39062 33L11.5 29.2444L18.6094 33L17.25 25.0408L23 19.4072L15.0547 18.2444L11.5 11Z" fill="#0E2149" fill-opacity="1.000000" fill-rule="nonzero"/>
</svg>
